<svg width="20" height="22" viewBox="0 0 20 22" fill="none" xmlns="http://www.w3.org/2000/svg">
<path d="M0.334748 1.08129L10.435 11.0057L0.409864 21.0216C0.245849 20.8076 0.118531 20.5677 0.0331269 20.3118C-0.0110423 20.0221 -0.0110423 19.7273 0.0331269 19.4376V2.3932C0.00308045 1.93583 0.108243 1.47846 0.333592 1.08129M14.7859 6.67747L11.4889 9.94971L1.50887 0.115599C1.83245 0.00328192 2.17914 -0.0279814 2.51774 0.0252824C3.04933 0.171179 3.55665 0.395813 4.02237 0.688764L13.0548 5.69672C13.6419 6.01283 14.2139 6.34515 14.7859 6.67747ZM11.4901 12.0768L14.7709 15.305L5.1364 20.6731C4.53548 21.0054 3.93224 21.3227 3.34517 21.6851C3.09397 21.8418 2.81229 21.943 2.51895 21.9819C2.2256 22.0209 1.92734 21.9967 1.64408 21.9109L11.4901 12.0768ZM19.9955 11.0057C20.004 11.4106 19.9019 11.8101 19.7002 12.1611C19.4986 12.5121 19.2051 12.8013 18.8515 12.9973L16.1403 14.5049L12.5729 11.0057L16.1554 7.44632C17.0741 7.95927 17.9778 8.47222 18.8804 8.95507C19.2403 9.15665 19.536 9.45621 19.7331 9.81911C19.9302 10.182 20.022 10.5934 19.9955 11.0057Z" fill="#1E1E1E"/>
</svg>
